# xmcd
#
# Track frame offsets:
#	150
#	11730
#	26478
#	43741
#	59740
#	71972
#	84005
#	97250
#	109005
#	125413
#	137774
#	151091
#	162960
#	173834
#	189905
#
# Disc length: 2692 seconds
#
# Revision: 1
# Processed by: cddbd v1.5.2PL0 Copyright (c) Steve Scherf et al.
# Submitted via: audiograbber 1.83.01
#
DISCID=c70a820f
DTITLE=Various Artist - Lifetime Of Country Romance - Always On My Mind Disc 2
DYEAR=2006
DGENRE=Country
TTITLE0=Don Gibson - Oh Lonesome Me
TTITLE1=Marty Robbins - Don't Worry
TTITLE2=Ray Price - For The Good Times
TTITLE3=Willie Nelson - Always On My Mind
TTITLE4=Johnny Cash - Understand You Man
TTITLE5=Eddy Arnold - Make The World Go Away
TTITLE6=David Houston - Almost Persuaded
TTITLE7=Jim Reeves - Welcome To My World
TTITLE8=Ronnie Milsap - It Was Almost Like A Song
TTITLE9=George Jones - The Door
TTITLE10=Carl And Pearl Butler - Don't Let Me Cross Over
TTITLE11=Skeeter Davis - The End Of The World
TTITLE12=Tanya Tucker - Would You Lay With Me (In A Field Of Stone)
TTITLE13=Marty Robbins - My Woman, My Woman, My Wife
TTITLE14=Elvis Presley - I Want You, I Need You, I Love You
EXTD=
EXTT0=
EXTT1=
EXTT2=
EXTT3=
EXTT4=
EXTT5=
EXTT6=
EXTT7=
EXTT8=
EXTT9=
EXTT10=
EXTT11=
EXTT12=
EXTT13=
EXTT14=
PLAYORDER=
